<svg xmlns="http://www.w3.org/2000/svg" viewBox="0 0 4680 3120"><defs><clipPath id="a"><path fill="none" d="M2666.35 1771.26H4140.9v974.27H2666.35z"/></clipPath></defs><g fill="#167ffc" class="color000000 svgShape" data-name="4"><path fill="#afe2b8" d="M2924.58 480.11C2215.91 359.49 1311.22 646 1316.24 1369.72c-809.19 191-862.34 834.22-671.35 1241.33l3385.42-15c407.11-1241.4-397.06-1995.31-1105.73-2115.94Z" class="colorafe2d8 svgShape"/><circle cx="2340" cy="569.27" r="209.27" fill="#90d39c" class="color90d3c6 svgShape" transform="rotate(-45 2339.996 569.262)"/><circle cx="2340" cy="569.27" r="209.27" fill="#90d39c" class="color90d3c6 svgShape" transform="rotate(-45 2339.996 569.262)"/><circle cx="929.39" cy="1545.55" r="376.58" fill="#90d39c" class="color90d3c6 svgShape" transform="rotate(-45 929.39 1545.554)"/><ellipse cx="2340" cy="2648.71" fill="#3f9e4f" class="color3f9e83 svgShape" rx="1800.9" ry="111.29"/><path fill="#7a7ce1" d="M3558.9 502.93c0-1.08-.8-1.81-1.15-2.77s-.14-2-.8-2.84c-.13-.16-.36-.13-.49-.28a8.44 8.44 0 0 0-3-1.66c-1.08-.52-2-1.24-3.13-1.3l-.31-.21h-475.81a9.05 9.05 0 0 0-9.06 9.06v303.5c0 1.15.83 1.94 1.22 3s.31 2.24 1.11 3.13c.06.07.17 0 .23.1a8.91 8.91 0 0 0 6.5 2.88h475.63a8.89 8.89 0 0 0 6.52-2.93c.07-.07.19 0 .25-.12.77-.86.67-2 1-3s1.24-1.82 1.24-3ZM3083.27 529l150.49 120.69L3083.27 786Zm222 154.83L3090.94 512h432.74Zm-57.37-22.43c.07-.06 0-.17.11-.24l51.55 41.35a9 9 0 0 0 11.28 0l57.25-45.06L3526 797.37h-428.27Zm134.67-15.3 158.21-124.51v264.7Z" class="color7ab7e1 svgShape"/><circle cx="3544.66" cy="512.03" r="89.22" fill="#ff901b" class="colorff1b34 svgShape" transform="rotate(-45 3544.658 512.025)"/><path fill="#bb6000" d="M965.36 1715.19c-28.3 23.74 8.22 156.12 198.11 143.33s189-46.56 379.79-9.13c-192.63-135.11-223.67-225.49-262-222.75s-221.84 56.6-224.58 56.6-91.32 31.95-91.32 31.95Z" class="colorbb1c00 svgShape"/><path fill="#10102b" d="M1439.27 452.91c58.81-26 116.08-3.33 136.73 25.74 65.18 10.61 64.3 60.42 41.5 93.11s-.14 93.45 31.77 108.49 63.33 49.78 63.81 80.13-8.69 54.36 32.87 75.72 11 104.89-58.67 82.71c-54.31 37.58-179.94 9.11-179.94 9.11S1363.27 804.88 1349 794.5c-48.9-36.53-102.15-128-66.88-182.92s56.36-41.76 80.1-78 41.12-76.94 77.05-80.67Z" class="color2b1710 svgShape"/><path fill="#ffd8af" d="M1564.53 939.22c34.74-57.86 95.1-92.17 95.1-92.17 50.33 106 87.78 154.23 125.3 133.33s32.24-159.33 23.13-197.15c-14-46.44-21.3-74.15-40.63-90s.45-33.28 21.29-11.84 29.16 39 38.52 20.26 26.66-43.37 65.09-71.51 38.88-7.33 30.26 4.87c25.5-14.54 28.63-8.29 24.49 2.88 8.42.85 10.1 10 3.05 20.6 8.09 3.23 3.7 25.24-12.63 40.31s-53.06 55.45-51.93 99.68 33.65 181.15 7.38 248.71c-24.63 63.35-129.65 104-207 55s-121.42-162.97-121.42-162.97Z" class="colorffbdaf svgShape"/><path fill="#edbc88" d="M1760.18 1123.89c52.75.74 103.56-25.76 126-63.11-45.91-51.08-146.4 7.91-126 63.11Z" class="colored9688 svgShape" opacity=".67"/><path fill="#edbc88" d="M1874.74 686a1.05 1.05 0 0 1-1.27-1.58 308.37 308.37 0 0 1 42.53-45.87 1 1 0 0 1 1.37 1.59 305.71 305.71 0 0 0-42.21 45.46 1 1 0 0 1-.42.4Z" class="colored9688 svgShape" opacity=".67"/><path fill="#edbc88" d="M1896.69 696.78a1.07 1.07 0 0 1-.84 0 1 1 0 0 1-.54-1.38c2.4-5.47 30-38.89 48.8-54.63a1 1 0 0 1 1.48.13 1.06 1.06 0 0 1-.13 1.48c-19.56 16.36-46.19 49.21-48.23 53.86a1.05 1.05 0 0 1-.54.54Z" class="colored9688 svgShape" opacity=".67"/><path fill="#edbc88" d="M1918.12 697.4a1 1 0 0 1-1.09-.16 1 1 0 0 1-.13-1.48c.12-.14 12-14.26 28.27-32.73a1 1 0 1 1 1.58 1.38c-16.21 18.46-28.13 32.57-28.25 32.71a.94.94 0 0 1-.38.28Z" class="colored9688 svgShape" opacity=".67"/><path fill="#edbc88" d="M1564.53 939.22a470.82 470.82 0 0 0 39.85 76.36c16.53-29.68 44.51-84.3 65.43-147.57q-5-10.08-10.18-21s-60.36 34.35-95.1 92.21Z" class="colored9688 svgShape" opacity=".67"/><path fill="#fe9526" d="M1545.54 724.18C1597.12 727.38 1672 857 1672 857c-42 45.65-100.43 69.38-100.43 69.38l-31-177.11Z" class="colorff9500 svgShape"/><path fill="#ffd8af" d="M1507.65 1826.57v67.56c-89.47 175.29-62.08 556.9-67.55 728.53-31 54.78-18.26 85.82-18.26 85.82H1745c-34.69-65.73-189.89-93.12-193.54-104.07-9.13-32.87 96.77-717.58 96.77-726.71s-7.3-69.39-7.3-69.39Z" class="colorffbdaf svgShape"/><path fill="#edbc88" d="M1507.66 1826.57v67.56c-14.15 27.71-25.37 60.59-34.26 97 55.17-47.24 118.59-69.9 170.27-80.62 2.91-19.83 4.58-31.64 4.58-32.78 0-9.13-7.3-69.39-7.3-69.39Z" class="colored9688 svgShape" opacity=".67"/><path fill="#fff" d="m1419.84 2679.79 215.63-4.17-1-40.5c-42.76-15.95-81.24-25.33-83-30.71-2.65-9.54 4.38-73.89 15.69-160.68h-126.88c.36 69.63 1.31 132.11-.18 178.93-13.42 23.68-18.64 42.91-20.26 57.13Z" class="colorffffff svgShape"/><path fill="#edbc88" d="M1825.59 715.74c15.75 12.55 20.54 38.11 20.54 38.11 22.6-29 55.69-37.2 55.69-37.2-32.64 4.57-51.35 22.37-51.35 22.37-14.15-23.02-24.88-23.28-24.88-23.28Z" class="colored9688 svgShape" opacity=".67"/><path fill="#ffd8af" d="M1241.61 870c-122.42 180.87-388.2 280.16-388.2 280.16l37.7 53.4c98.15-20.35 374.27-115.79 475.49-275.35C1272 894.72 1241.61 870 1241.61 870Z" class="colorffbdaf svgShape"/><path fill="#fe9526" d="M1317.76 740.16c-66.19 63-108.64 145.16-104.53 146.53 89 58.88 158.85 54.78 158.85 54.78 35.61-125.99.92-204.05-54.32-201.31Z" class="colorff9500 svgShape"/><path fill="#10102b" d="M1530.4 470.57c80.77-11.7 95.95 37.73 84.15 72.94s-50.33 63.58-50.33 63.58l-129.77 20.3Z" class="color2b1710 svgShape"/><path fill="#ffd8af" d="M1407.58 713.74c.11-1.64 24.26-5.45 33.85-20.08s16.18-53 16.22-104.89c19.77 6.62 27.77-8.94 29.95-36.41s18.13-70.56 71.05-60.16c18.53 25.92 28.2 42.21 24.5 74.12s-1.59 54.86-6.41 69.93c-4.76 14.92-23 41.94-60.74 38.7-3.6 15.43-15.79 43.14-5.7 56.64 8.59 11.49 12.72 25.8 9.57 39.79-19.87 88.25-112.29-57.64-112.29-57.64Z" class="colorffbdaf svgShape"/><path fill="#ffbf7b" d="M1550.73 576.66a92.65 92.65 0 0 0 1.51 23c2.44 13 1.34 16.47-10.08 13.49-13.46-3.48 1.37-43.47 8.57-36.49Z" class="colorff7b7b svgShape"/><path fill="#10102b" d="M1493.75 555a1.05 1.05 0 0 1-.4-2c14.17-6.94 30.51-6.51 37.09-4a1.05 1.05 0 0 1 .61 1.36 1 1 0 0 1-1.35.61c-5.39-2-21.32-3-35.42 4a1.11 1.11 0 0 1-.53.03ZM1579.33 561.63a1 1 0 0 1-.81-.47c-.16-.24-4-5.94-17.66-5.12a1 1 0 0 1-1.11-1 1.06 1.06 0 0 1 1-1.12c14.57-.87 19.08 5.35 19.55 6.07a1 1 0 0 1-.31 1.45 1 1 0 0 1-.66.19Z" class="color2b1710 svgShape"/><path fill="#e0c5a8" d="M1538.06 661.19a26 26 0 0 0 9.11-1 .84.84 0 0 0-.48-1.6 26 26 0 0 1-13.52.09.84.84 0 0 0-1.05.55.83.83 0 0 0 .56 1 25 25 0 0 0 5.38.96Z" class="colore0b3a8 svgShape"/><path fill="#10102b" d="M1558.65 492.2c-5.91 44.42-68.63 46.89-79.81 43.74s22.6-67.01 79.81-43.74ZM1476.6 599.2c-4.46-.28-10.83-3.42-18.77-14.42a2.44 2.44 0 1 1 4-2.86c6.87 9.51 13.48 14 17.67 12 6.27-3 8.61-20.34 1-47.59a2.44 2.44 0 0 1 4.7-1.32c7.73 27.61 6.33 48.53-3.57 53.31a9.75 9.75 0 0 1-5.03.88Z" class="color2b1710 svgShape"/><path fill="#10102b" d="M1525.86 534.14c-8.14-.52-16.72-3.24-25.21-8.13a2.44 2.44 0 0 1 2.44-4.23c15.8 9.1 31.76 10 43.79 2.54a32.4 32.4 0 0 0 15.12-29.24 2.44 2.44 0 0 1 2.27-2.59 2.48 2.48 0 0 1 2.6 2.27 36.85 36.85 0 0 1-17.44 33.7 39.15 39.15 0 0 1-23.57 5.68Z" class="color2b1710 svgShape"/><path fill="#f2b779" d="M1485.09 614.8c-.06 7.75 8.64 14.1 19.42 14.18s19.56-6.14 19.62-13.89-8.64-14.1-19.42-14.18-19.56 6.14-19.62 13.89Z" class="colorf28579 svgShape" opacity=".67"/><path fill="#f2b779" d="M1580.41 606.61c-7 1.07-12 7-11.52 13.79a13 13 0 0 0 9 11.2c1.52-6.93 2.11-15.21 2.52-24.99Z" class="colorf28579 svgShape" opacity=".67"/><path fill="#ffd8af" d="M1463 602.07a15 15 0 1 1-10.93-18.19 15 15 0 0 1 10.93 18.19Z" class="colorffbdaf svgShape"/><path d="M1451 588.07a10.6 10.6 0 0 0-9.13 1.92.64.64 0 0 0-.12.89.63.63 0 0 0 .89.11 9.38 9.38 0 0 1 11.75.17l-.39-.16a6.41 6.41 0 1 0 3.38 10.27 9.46 9.46 0 0 1-5.53 5.93.63.63 0 0 0 .08 1.2.62.62 0 0 0 .38 0 10.69 10.69 0 0 0-1.32-20.33Zm.22 14.15a5.14 5.14 0 1 1 6.23-3.74 5.14 5.14 0 0 1-6.23 3.74Z" style="mix-blend-mode:multiply" fill="#e0c5a8" class="colore0b3a8 svgShape" opacity=".54"/><path fill="#edbc88" d="M1516.09 674.88c-34.42-12.85-48.1-45.66-48.44-57.43-7.06 70.02 22.26 122.19 48.44 57.43Z" class="colored9688 svgShape" opacity=".67"/><path fill="#10102b" d="M1253.26 703a1.83 1.83 0 0 1-.91-.58c-23.7-29.09-32.82-57-26.39-80.64 5.38-19.81 22-36.63 44.5-45l1-.36c35.8-13.32 89.9-33.46 125.78-81.5a1.75 1.75 0 0 1 2.8 2.1c-36.5 48.86-91.18 69.21-127.36 82.68l-1 .36c-21.43 8-37.26 23.92-42.34 42.64-6.13 22.53 2.77 49.33 25.73 77.51a1.75 1.75 0 0 1-1.81 2.79ZM1764.86 827.6a32.86 32.86 0 0 1-13.62-7.22c-8.88-7.94-13.68-21.06-14.28-39-1.34-40.34-22.89-73.76-60.69-94.12-6.23-3.35-12.34-6.37-18.26-9.29-33.51-16.55-60-29.62-55.48-77.75a1.75 1.75 0 1 1 3.48.33c-4.27 45.73 20 57.71 53.55 74.29 5.94 2.93 12.09 6 18.37 9.34 38.94 21 61.15 55.45 62.53 97.08.56 17 5 29.24 13.11 36.52s18.51 8.09 25.8 7.52a1.75 1.75 0 1 1 .28 3.48 44.25 44.25 0 0 1-14.79-1.18Z" class="color2b1710 svgShape"/><path fill="#10102b" d="M1736.8 709.91a1.75 1.75 0 0 1-1.2-1.11c-6.91-19.42-27.92-34-64.22-44.51-41.32-12-61.94-50.47-58.08-108.4a1.76 1.76 0 0 1 1.86-1.63 1.74 1.74 0 0 1 1.63 1.86c-3.74 56.12 16 93.34 55.57 104.81 37.46 10.86 59.22 26.14 66.54 46.7a1.75 1.75 0 0 1-1.06 2.23 1.69 1.69 0 0 1-1.04.05Z" class="color2b1710 svgShape"/><path fill="#141566" d="M1421.84 2708.48H1745c-34.69-65.73-189.89-93.12-193.54-104.07-40.17-5.48-63 24.64-69.39 29.21-23.74 5.48-42-11-42-11-31.01 54.82-18.23 85.86-18.23 85.86Z" class="color143266 svgShape"/><path fill="#090a4f" d="M1733.22 2692c-44 1.5-145 3.21-181.74-10.91-40.93-15.74-75.13-20.61-128.23-18.73-8.11 29.81-1.41 46.12-1.41 46.12H1745a80.29 80.29 0 0 0-11.78-16.48Z" class="color09254f svgShape"/><path fill="#10102b" d="M1538.69 2644.58a13.69 13.69 0 1 1-13.69-13.7 13.69 13.69 0 0 1 13.69 13.7ZM1574.67 2658.27a10 10 0 1 1-10-10 10 10 0 0 1 10 10ZM1606.1 2668.23a10 10 0 1 1-10-10 10 10 0 0 1 10 10ZM1572.93 2639.48a1.75 1.75 0 0 1-1.72-2.07c.16-.85 4.12-20.78 27.72-27.39a1.75 1.75 0 0 1 1 3.37c-21.44 6-25.09 23.9-25.23 24.66a1.75 1.75 0 0 1-1.77 1.43ZM1604.43 2651.8a1.84 1.84 0 0 1-.33 0 1.75 1.75 0 0 1-1.39-2c.15-.84 4.12-20.77 27.72-27.38a1.75 1.75 0 1 1 .94 3.37c-21.44 6-25.08 23.9-25.22 24.66a1.75 1.75 0 0 1-1.72 1.35Z" class="color2b1710 svgShape"/><path fill="#ffd8af" d="m1217.34 1696 21 197.2c-89.46 175.28-181.22 557.81-186.69 729.44-31 54.78-18.26 85.82-18.26 85.82h323.18c-34.69-65.73-189.89-93.12-193.54-104.07-9.13-32.87 215.91-718.5 215.91-727.63s-7.31-69.38-7.31-69.38Z" class="colorffbdaf svgShape"/><path fill="#fff" d="M1073.49 2444.18c-12.48 69.48-20.36 131.8-21.85 178.48-31 54.78-18.26 85.82-18.26 85.82h265a287.7 287.7 0 0 0 19.37-38.91c-58.25-38.35-151.9-56.68-154.73-65.16-2.64-9.51 14.32-73.65 39.76-160.23Z" class="colorffffff svgShape"/><path fill="#edbc88" d="M1371.62 1807.4 1217.34 1696l17.66 165.74c50.58-8.88 102.44-4.76 142.89 1.15-2.05-20.71-6.27-55.49-6.27-55.49Z" class="colored9688 svgShape" opacity=".67"/><path fill="#141566" d="M1033.38 2708.48h323.18c-34.69-65.73-189.89-93.12-193.55-104.07-40.16-5.48-63 24.64-69.38 29.21-23.74 5.48-42-11-42-11-31.03 54.82-18.25 85.86-18.25 85.86Z" class="color143266 svgShape"/><path fill="#090a4f" d="M1344.76 2692c-44 1.5-145 3.21-181.75-10.91-40.92-15.74-75.12-20.61-128.22-18.73-8.11 29.81-1.41 46.12-1.41 46.12h323.18a80.29 80.29 0 0 0-11.8-16.48Z" class="color09254f svgShape"/><path fill="#10102b" d="M1150.23 2644.58a13.69 13.69 0 1 1-13.69-13.7 13.69 13.69 0 0 1 13.69 13.7ZM1182.72 2661.07a11.08 11.08 0 1 1-11.08-11.08 11.08 11.08 0 0 1 11.08 11.08ZM1214.22 2674.15a8.26 8.26 0 1 1-8.26-8.25 8.26 8.26 0 0 1 8.26 8.25ZM1184.47 2639.48a1.75 1.75 0 0 1-1.72-2.07c.16-.85 4.12-20.78 27.72-27.39a1.75 1.75 0 0 1 1 3.37c-21.44 6-25.09 23.9-25.23 24.66a1.75 1.75 0 0 1-1.77 1.43ZM1216 2651.8a1.84 1.84 0 0 1-.33 0 1.75 1.75 0 0 1-1.39-2c.15-.84 4.12-20.77 27.72-27.38a1.75 1.75 0 1 1 .94 3.37c-21.44 6-25.08 23.9-25.22 24.66a1.75 1.75 0 0 1-1.72 1.35Z" class="color2b1710 svgShape"/><path fill="#ec7900" d="M1379.84 1068.82c-110.47 106.82-189.89 293.06-239.19 441s-175.29 205.41-175.29 205.41c95.86-48.38 210.89-8.21 323.19 65.73s441 112.3 564.2 71.21c-145.16-246.49-157-660.06-253.8-783.31Z" class="colorec1c00 svgShape"/><path fill="#ffd8af" d="M858.69 1148.74c-29.3 9.36-72.25 21.79-96.23 32.58S701 1209.65 700 1212.85c.26 8.44 18.15 5.78 27.57 2.84s34.52-11.64 26.43.24-41.65 20.32-58.64 68.93c3.9 6.22 12.71.67 25.5-12.94s21.25-13.34 16.65-8.45c-22.65 19.73-29.41 40-29.07 51.11s17.5 2.1 17.5 2.1c.28 9 26.9-1.89 38-19.15-10.37 23.58 4.62 12.55 14.73-2s66.85-59.67 88.75-69.34 28-35.21 28-35.21Z" class="colorffbdaf svgShape"/><path fill="#edbc88" d="M766.12 1205.51c17.79 11.34 56.11 3 56.11 3-22.79 31.89-22.05 55.91-22.05 55.91-6-23.6 1.89-41.28 1.89-41.28-28.31-9.67-35.95-17.63-35.95-17.63Z" class="colored9688 svgShape" opacity=".67"/><path fill="#edbc88" d="M762.79 1267.2a2.34 2.34 0 0 1-.81 1.86c-.15.14-15.39 13.66-33.17 41a2.37 2.37 0 1 1-4-2.59c18.17-28 33.38-41.44 34-42a2.38 2.38 0 0 1 3.94 1.71Z" class="colored9688 svgShape" opacity=".67"/><path fill="#edbc88" d="M776 1271.92a2.39 2.39 0 0 1-.22 1.07 2.36 2.36 0 0 1-3.14 1.15c-.37-.17-9.2-4.36-19.19-18.84a2.38 2.38 0 1 1 3.91-2.7c9.17 13.29 17.2 17.2 17.28 17.23a2.37 2.37 0 0 1 1.36 2.09Z" class="colored9688 svgShape" opacity=".67"/><path fill="#edbc88" d="M775.68 1278a2.26 2.26 0 0 1-.31 1.25c-3.9 6.83-8.16 14.65-8.54 15.94a2.44 2.44 0 0 1-2.89 1.67 2.3 2.3 0 0 1-1.74-2.74c.42-1.94 5.85-11.62 9-17.23a2.38 2.38 0 0 1 3.24-.88 2.36 2.36 0 0 1 1.24 1.99Z" class="colored9688 svgShape" opacity=".67"/><path fill="#fff" d="M1520.23 597a23.34 23.34 0 1 1 1.32 0Zm.46-44.7h-1.23a21.5 21.5 0 1 0 1.23 0ZM1573.09 601a23.07 23.07 0 1 1 1.32 0h-1.32Zm.45-44.69h-1.22a21.5 21.5 0 1 0 1.22 0Z" class="colorffffff svgShape"/><path fill="#fff" d="m1542.69 576.33-.09-1.78 8.18-.39.08 1.79-8.17.38z" class="colorffffff svgShape"/><path fill="#fff" d="M1477.6 543.36h1.79v42.17h-1.79z" class="colorffffff svgShape" transform="rotate(-86.08 1478.51 564.435)"/><path d="M1519.82 573c-.42 4.29.79 7.93 2.73 8.12s3.87-3.15 4.32-7.45-.78-7.94-2.71-8.12-3.89 3.1-4.34 7.45ZM1567.07 576.72c-.44 4.3.8 7.93 2.73 8.1s3.86-3.13 4.31-7.43-.77-7.94-2.73-8.12-3.86 3.12-4.31 7.45Z" class="color000000 svgShape"/><path fill="#1b1b2d" d="M1544.58 642.08c5.24.54 8.68 4.21 12.7 2.57a6.68 6.68 0 0 0 4.1-5.85 10.2 10.2 0 0 0-2.85-6.9 19 19 0 0 0-13.25-6.08c-13.1-.45-17.71 7.09-17.79 11.3a6.59 6.59 0 0 0 5.19 6.38c2.98.64 8.18-1.81 11.9-1.42Z" class="color251b2d svgShape"/><ellipse cx="1571.99" cy="574.13" fill="#fff" class="colorffffff svgShape" rx="2.2" ry="1.09" transform="rotate(-86.89 1571.961 574.143)"/><path fill="#fff" d="M1526.12 570.12c0 1.21-.57 2.18-1.17 2.16s-1-1-1-2.24.57-2.18 1.17-2.15 1.05 1.02 1 2.23ZM1272.82 2704.36c-78.52 0-118.61-12.15-136.93-20.54-34.82-16-90.19-12.52-90.74-12.49a1.55 1.55 0 1 1-.21-3.09c.56 0 56.7-3.54 92.25 12.75 22.52 10.33 78.44 26.38 200 17.88a1.55 1.55 0 1 1 .21 3.09c-23.98 1.68-45.4 2.4-64.58 2.4ZM1656.15 2703.89h-3.72c-52.16-.2-87.89-4.28-106.19-12.13-59.42-25.5-121.13-20.84-121.75-20.79a1.55 1.55 0 0 1-.25-3.09c.63-.05 63.07-4.79 123.22 21 42.82 18.37 176.37 9.91 177.72 9.82a1.57 1.57 0 0 1 1.65 1.45 1.56 1.56 0 0 1-1.45 1.65c-.33.05-32.06 2.09-69.23 2.09Z" class="colorffffff svgShape"/><path fill="#10102b" d="M1606.25 1077.31h-235.47v-40.52h222.25l13.22 40.52z" class="color2b1710 svgShape"/><path fill="#ff8300" d="M1564.61 1034.01h16.33v47.86h-16.33zM1443.58 1035.02h16.33v47.86h-16.33zM1377.74 1033.5h16.33v47.86h-16.33z" class="colorff1c00 svgShape"/><circle cx="3591.26" cy="1669.55" r="164.81" transform="rotate(-45 3591.27 1669.548)" style="mix-blend-mode:multiply" fill="#cccdff" class="colorccdbff svgShape"/><circle cx="3552.91" cy="1650.37" r="164.81" fill="#ff901b" class="colorff1b34 svgShape" transform="rotate(-45 3552.909 1650.377)"/><path fill="#fff" d="M3650.16 1737a7 7 0 0 1-6.61-4.79c-13.33-40.72-49.76-68.08-90.64-68.08s-77.31 27.36-90.64 68.08a7 7 0 0 1-13.23-4.33c15.2-46.46 56.94-77.67 103.87-77.67s88.66 31.21 103.87 77.67a7 7 0 0 1-4.45 8.78 7.12 7.12 0 0 1-2.17.34ZM3500.62 1609.17c0 14.86-8.54 26.9-19.07 26.9s-19.07-12-19.07-26.9 8.54-26.9 19.07-26.9 19.07 12.04 19.07 26.9Z" class="colorffffff svgShape"/><ellipse cx="3624.26" cy="1609.17" fill="#fff" class="colorffffff svgShape" rx="19.07" ry="26.9"/><circle cx="2099.42" cy="2552.61" r="137.4" fill="#080941" class="color083141 svgShape"/><path fill="#080823" d="M2013.25 2552.61a86.17 86.17 0 1 0 86.17-86.16 86.16 86.16 0 0 0-86.17 86.16Z" class="color081623 svgShape"/><path fill="#8082e6" d="M2028.76 2416.27v131.93a70.66 70.66 0 1 0 141.32 0v-131.93Z" class="color80abe6 svgShape"/><path fill="#8082e6" d="M2198.15 2416.27a24 24 0 0 1-24 24h-149.44a24 24 0 0 1-24-24 24 24 0 0 1 24-24h149.41a24 24 0 0 1 24 24ZM2061.36 2552.61a38.06 38.06 0 1 0 38.06-38.06 38.05 38.05 0 0 0-38.06 38.06Z" class="color80abe6 svgShape"/><path fill="#adadbc" d="M2079.71 2552.61a19.71 19.71 0 1 0 19.71-19.69 19.71 19.71 0 0 0-19.71 19.69Z" class="coloradb2bc svgShape"/><circle cx="2099.41" cy="2552.61" r="137.4" fill="#080941" class="color083141 svgShape"/><ellipse cx="2099.41" cy="2552.61" fill="#080823" class="color081623 svgShape" rx="86.16" ry="86.17" transform="rotate(-89.51 2099.6 2552.627)"/><path fill="#3335c1" d="M2028.75 2416.27v131.93a70.67 70.67 0 1 0 141.33 0v-131.93Z" class="color334ec1 svgShape"/><path fill="#3335c1" d="M2198.14 2416.27a24 24 0 0 1-24 24h-149.4a24 24 0 0 1-24-24 24 24 0 0 1 24-24h149.4a24 24 0 0 1 24 24Z" class="color334ec1 svgShape"/><path fill="#8082e6" d="M2061.36 2552.61a38.06 38.06 0 1 0 38-38.06 38.05 38.05 0 0 0-38 38.06Z" class="color80abe6 svgShape"/><path fill="#adadbc" d="M2079.71 2552.61a19.71 19.71 0 1 0 19.7-19.69 19.7 19.7 0 0 0-19.7 19.69Z" class="coloradb2bc svgShape"/><path fill="#080941" d="M2809.33 2552.61a137.4 137.4 0 1 0 137.41-137.4 137.39 137.39 0 0 0-137.41 137.4Z" class="color083141 svgShape"/><path fill="#080823" d="M2860.57 2552.61a86.17 86.17 0 1 0 86.17-86.16 86.15 86.15 0 0 0-86.17 86.16Z" class="color081623 svgShape"/><path fill="#3335c1" d="M2876.07 2416.27v131.93a70.67 70.67 0 1 0 141.33 0v-131.93Z" class="color334ec1 svgShape"/><path fill="#3335c1" d="M3045.47 2416.27a24 24 0 0 1-24 24H2872a24 24 0 0 1-24-24 24 24 0 0 1 24-24h149.4a24 24 0 0 1 24 24Z" class="color334ec1 svgShape"/><path fill="#8082e6" d="M2908.67 2552.61a38.06 38.06 0 1 0 38.07-38.06 38.06 38.06 0 0 0-38.07 38.06Z" class="color80abe6 svgShape"/><path fill="#adadbc" d="M2927 2552.61a19.71 19.71 0 1 0 19.72-19.69 19.71 19.71 0 0 0-19.72 19.69Z" class="coloradb2bc svgShape"/><path fill="#595bd4" d="M3123 2415.78H1798.54a38 38 0 0 1 0-76.09h1324.39c18.12-.29 48.84-7 48.84-48.82v-243.75a38 38 0 0 1 76.08 0v243.75c0 45.27-18.43 73.1-33.88 88.45-35.4 35.2-84.23 36.46-90.97 36.46Z" class="color5e72ea svgShape"/><path fill="#595bd4" d="M2495.77 2356.81h-164.23a38 38 0 0 1 0-76.09H2480l43.1-43.12v-89.24l-234.52-105.11a38 38 0 1 1 31.12-69.43l257 115.2a38 38 0 0 1 22.47 34.71v129.63a38 38 0 0 1-11.13 26.91l-65.39 65.4a38.13 38.13 0 0 1-26.88 11.14Z" class="color5e72ea svgShape"/><path fill="#3437d6" d="M3225.75 1745.76h-1405c-12.66 0-22.92-10.86-22.92-24.22s10.26-24.21 22.92-24.21h1405c12.66 0 22.92 10.85 22.92 24.21s-10.26 24.22-22.92 24.22Z" class="color3453d6 svgShape"/><path fill="#3437d6" d="M1955.44 1958.37a20.75 20.75 0 0 1-20.75-20.73v-445.77a20.75 20.75 0 0 1 41.5 0v445.77a20.75 20.75 0 0 1-20.75 20.73ZM2174.51 1985.34a20.76 20.76 0 0 1-20.75-20.75v-472.72a20.75 20.75 0 0 1 41.5 0v472.72a20.76 20.76 0 0 1-20.75 20.75ZM2393.58 1985.34a20.76 20.76 0 0 1-20.75-20.75v-552.73a20.75 20.75 0 1 1 41.5 0v552.73a20.76 20.76 0 0 1-20.75 20.75ZM2612.66 1985.34a20.76 20.76 0 0 1-20.76-20.75v-579.9a20.75 20.75 0 1 1 41.5 0v579.9a20.76 20.76 0 0 1-20.74 20.75ZM2831.72 1985.34a20.76 20.76 0 0 1-20.75-20.75v-591.45a20.75 20.75 0 1 1 41.5 0v591.45a20.76 20.76 0 0 1-20.75 20.75ZM3050.8 2008.25a20.74 20.74 0 0 1-20.75-20.75v-669.83a20.75 20.75 0 1 1 41.49 0v669.83a20.73 20.73 0 0 1-20.74 20.75Z" class="color3453d6 svgShape"/><path fill="#8082e6" d="M3424 1024.19a13.28 13.28 0 0 1-7.24 17.33l-14.77 5.7a13.26 13.26 0 0 1-17.31-7.23 13.26 13.26 0 0 1 7.23-17.32l14.75-5.7a13.29 13.29 0 0 1 17.34 7.22Z" class="color80abe6 svgShape" opacity=".2"/><path fill="#595bd4" d="M3237 2021.72h-.86l-1386.55-49a24.23 24.23 0 0 1-22.89-19.46l-86.55-434.23a24.21 24.21 0 0 1 47.49-9.47l82.79 415.44 1342.36 47.42v-736.8c-.08-3.55-1.22-99.29 75.52-141.3 65-35.59 110-55 111.9-55.77a24.21 24.21 0 0 1 19.08 44.5c-.45.19-44.93 19.36-107.72 53.74-51.25 28.05-50.39 97.62-50.37 98.31v762.38a24.18 24.18 0 0 1-24.21 24.2Z" class="color5e72ea svgShape"/><path fill="#595bd4" d="M1701.1 1552.37a38 38 0 0 1-6.14-75.59l1508.64-248.91a38 38 0 1 1 12.39 75.07l-1508.65 248.91a36.92 36.92 0 0 1-6.24.52Z" class="color5e72ea svgShape"/><path fill="#3335c1" d="M3635 963.91a60.27 60.27 0 0 1-31.55 79.2l-169.81 73.1a60.27 60.27 0 0 1-79.2-31.53 60.27 60.27 0 0 1 31.55-79.2l169.8-73.11a60.29 60.29 0 0 1 79.21 31.54Z" class="color334ec1 svgShape"/><path fill="#8082e6" d="M2060.71 2367.42a10.63 10.63 0 0 1-10.62 10.62H1814a10.63 10.63 0 0 1-10.63-10.62 10.62 10.62 0 0 1 10.63-10.61h236.14a10.62 10.62 0 0 1 10.62 10.61ZM2153.62 2367.42A10.62 10.62 0 0 1 2143 2378h-43.3a10.62 10.62 0 0 1-10.61-10.62 10.61 10.61 0 0 1 10.61-10.61h43.3a10.61 10.61 0 0 1 10.61 10.61ZM1973.72 1465a11.76 11.76 0 0 1-9.72 13.51l-258.36 42a11.77 11.77 0 0 1-13.51-9.73 11.77 11.77 0 0 1 9.73-13.5l258.36-42a11.76 11.76 0 0 1 13.5 9.72ZM2075.38 1448.47a11.76 11.76 0 0 1-9.72 13.5l-47.38 7.71a11.78 11.78 0 0 1-13.51-9.74 11.78 11.78 0 0 1 9.73-13.5l47.38-7.7a11.77 11.77 0 0 1 13.5 9.73ZM2441.6 2078.6a10.61 10.61 0 0 1-14.07 5.24l-119.76-54.48a10.62 10.62 0 0 1-5.26-14.07 10.65 10.65 0 0 1 14.08-5.26l119.76 54.5a10.61 10.61 0 0 1 5.25 14.07ZM2513 2112.63a10.61 10.61 0 0 1-14.08 5.26l-39.38-18a10.63 10.63 0 0 1-5.26-14.07 10.64 10.64 0 0 1 14.07-5.26l39.39 18a10.61 10.61 0 0 1 5.26 14.06Z" class="color80abe6 svgShape"/><path fill="#3437d6" d="M1949.87 1643.26a5 5 0 0 1-5-5v-110.52a5 5 0 0 1 5-5 5 5 0 0 1 5 5v110.55a5 5 0 0 1-5 5ZM1949.87 1686.76a5 5 0 0 1-5-5v-20.27a5 5 0 0 1 5-5 5 5 0 0 1 5 5v20.27a5 5 0 0 1-5 5Z" class="color3453d6 svgShape"/><path fill="#8082e6" d="M2169.54 1611.41a5 5 0 0 1-5-5v-110.52a5 5 0 0 1 5-5 5 5 0 0 1 5 5v110.55a5 5 0 0 1-5 5Z" class="color80abe6 svgShape"/><path fill="#3437d6" d="M2169.54 1654.91a5 5 0 0 1-5-5v-20.28a5 5 0 0 1 5-5 5 5 0 0 1 5 5V1650a5 5 0 0 1-5 5Z" class="color3453d6 svgShape"/><path fill="#8082e6" d="M2386.66 1568.34a5 5 0 0 1-5-5v-110.52a5 5 0 0 1 5-5 5 5 0 0 1 5 5v110.54a5 5 0 0 1-5 5ZM2386.66 1611.84a5 5 0 0 1-5-5v-20.24a5 5 0 0 1 5-5 5 5 0 0 1 5 5v20.28a5 5 0 0 1-5 5ZM2610.94 1529.4a5 5 0 0 1-5-5v-110.51a5 5 0 0 1 5-5 5 5 0 0 1 5 5v110.55a5 5 0 0 1-5 5ZM2610.94 1572.91a5 5 0 0 1-5-5v-20.27a5 5 0 0 1 5-5 5 5 0 0 1 5 5v20.27a5 5 0 0 1-5 5ZM2826.46 1492.71a5 5 0 0 1-5-5V1377.2a5 5 0 0 1 5-5 5 5 0 0 1 5 5v110.54a5 5 0 0 1-5 5ZM2826.46 1536.22a5 5 0 0 1-5-5V1511a5 5 0 0 1 5-5 5 5 0 0 1 5 5v20.27a5 5 0 0 1-5 5ZM3050.8 1457.86a5 5 0 0 1-5-5v-110.53a5 5 0 0 1 5-5 5 5 0 0 1 5 5v110.56a5 5 0 0 1-5 5ZM3050.8 1501.37a5 5 0 0 1-5-5v-20.27a5 5 0 0 1 5-5 5 5 0 0 1 5 5v20.29a5 5 0 0 1-5 5ZM3228.75 1422.33a5 5 0 0 1-5-5v-110.52a5 5 0 0 1 5-5 5 5 0 0 1 5 5v110.54a5 5 0 0 1-5 5ZM3228.75 1465.83a5 5 0 0 1-5-5v-20.27a5 5 0 0 1 5-5 5 5 0 0 1 5 5v20.27a5 5 0 0 1-5 5Z" class="color80abe6 svgShape"/><path fill="#fff" d="m3831.78 1329.37 81.52 23.31-81.52 23.32-27.67 85.87-27.69-85.87-81.5-23.32 81.5-23.31 27.69-85.88 27.67 85.88zM3498.76 1381.56l29.83 8.54-29.83 8.52-10.12 31.42-10.13-31.42-29.82-8.52 29.82-8.54 10.13-31.42 10.12 31.42zM3566.69 1178.72l29.83 8.54-29.83 8.53-10.13 31.41-10.12-31.41-29.82-8.53 29.82-8.54 10.12-31.41 10.13 31.41zM2304.41 1199.08l81.52 23.32-81.52 23.31-27.67 85.88-27.69-85.88-81.5-23.31 81.5-23.32 27.69-85.87 27.67 85.87zM1971.39 1251.27l29.83 8.54-29.83 8.53-10.12 31.41-10.13-31.41-29.82-8.53 29.82-8.54 10.13-31.41 10.12 31.41zM2039.32 1048.44l29.83 8.54-29.83 8.52-10.13 31.42-10.12-31.42-29.82-8.52 29.82-8.54 10.12-31.42 10.13 31.42zM915.25 2092.53l81.52 23.31-81.52 23.32-27.67 85.87-27.69-85.87-81.5-23.32 81.5-23.31 27.69-85.88 27.67 85.88zM739.46 2266.53l29.82 8.54-29.82 8.53-10.13 31.41-10.12-31.41-29.82-8.53 29.82-8.54 10.12-31.41 10.13 31.41zM650.16 1941.88l29.83 8.54-29.83 8.53-10.13 31.42-10.12-31.42-29.82-8.53 29.82-8.54 10.12-31.41 10.13 31.41z" class="colorffffff svgShape"/><path fill="#3335c1" d="M3562 964a13.26 13.26 0 0 1-7.24 17.32l-102.68 43.85a13.28 13.28 0 0 1-17.32-7.23 13.26 13.26 0 0 1 7.23-17.32l102.69-43.84A13.27 13.27 0 0 1 3562 964Z" class="color3376c1 svgShape"/><g class="color000000 svgShape" clip-path="url(#a)"><path fill="#53d86a" d="M3378.49 2385.37c-77.23 283.77-8.53 436.25 118 470.69s263-62.19 340.28-346-60.6-681.65-60.6-681.65-320.45 273.19-397.68 556.96Z" class="color6bb861 svgShape"/><path fill="#8be09a" d="M3378.49 2385.37c77.23-283.77 397.7-556.92 397.7-556.92l-279.68 1027.61c-126.51-34.44-195.25-186.92-118.02-470.69Z" class="color8bd7e0 svgShape"/><path fill="#53d86a" d="M3697.09 2508.79c-124 176.8-114.44 299.23-35.59 354.51s197.19 22.49 321.15-154.31 127.74-486 127.74-486-289.34 109.01-413.3 285.8Z" class="color6bb861 svgShape"/><path fill="#8be09a" d="M3697.09 2508.79c124-176.81 413.3-285.76 413.3-285.76L3661.5 2863.3c-78.85-55.3-88.37-177.71 35.59-354.51Z" class="color8bd7e0 svgShape"/><path fill="#53d86a" d="M3200.32 2482c81.78 168.69 56.69 272.3-18.54 308.77s-172.12-8-253.9-176.69-42.26-434.19-42.26-434.19 232.92 133.45 314.7 302.11Z" class="color6bb861 svgShape"/><path fill="#8be09a" d="M3200.32 2482c-81.78-168.69-314.7-302.1-314.7-302.1l296.16 610.88c75.22-36.44 100.32-140.05 18.54-308.78Z" class="color8bd7e0 svgShape"/></g><circle cx="2798.09" cy="1166.48" r="314.46" fill="#ff8e16" class="colorff1623 svgShape"/><path fill="#fff" d="M2935.67 1101.59q0 77.13-35.9 120.76T2801 1266q-63.61 0-99-44.09t-35.38-123.85q0-79.11 35.76-123.31t99.39-44.2q64.38 0 99.13 44.31t34.77 126.73ZM2800 1220.7q37.3 0 56.07-30.82t18.78-92.27q0-59.65-18.51-90.93t-54.05-31.27q-37 0-55.94 31.16t-18.91 91.93q0 59 18.78 90.6t53.78 31.6ZM2647.87 1296.31a7.79 7.79 0 0 1 2.45-5.74 8 8 0 0 1 5.84-2.42 8 8 0 0 1 8.16 8.16 8.05 8.05 0 0 1-2.36 5.89 7.85 7.85 0 0 1-5.8 2.39 8.37 8.37 0 0 1-8.29-8.28Zm1.76 82.09v-57.31h13.11v57.31ZM2684.57 1378.4v-45.82h-10v-11.49h10v-21.7h13.11v21.7h10v11.49h-10v45.82ZM2774.21 1351.68h-45.82q.48 8 4.78 12.54t11.42 4.5a19.56 19.56 0 0 0 10.58-2.65 22 22 0 0 0 7.37-8.59l11.07 6.17a33.57 33.57 0 0 1-12 12.87 32.24 32.24 0 0 1-16.75 4.23q-13.79 0-21.94-8.4t-8.16-22.42q0-13.48 8.43-22.16t21.67-8.67q13.84 0 21.58 7.92t7.74 22.18Zm-13.6-8.83q-.78-6.16-4.72-9.4t-10.76-3.23q-6.47 0-10.39 3.14t-5.5 9.49ZM2801 1378.4h-13.12v-57.31h12.33v9.37a25.74 25.74 0 0 1 8.92-8.73 23.88 23.88 0 0 1 11.76-2.75 20.28 20.28 0 0 1 11.12 2.81 17.38 17.38 0 0 1 6.71 8.55 30.35 30.35 0 0 1 9.64-8.64 24.27 24.27 0 0 1 11.64-2.7 22.19 22.19 0 0 1 9.91 2.08 15.38 15.38 0 0 1 6.59 6.08 14.52 14.52 0 0 1 1.6 4.47 41.13 41.13 0 0 1 .51 7.44v39.35h-13.11V1349q0-11.55-2.45-15.2t-8.74-3.66q-7.73 0-11 4.93t-3.29 17.25v26.12h-13.24V1349q0-10.64-2.57-14.75t-8.86-4.11a14.5 14.5 0 0 0-7.07 1.75 13.35 13.35 0 0 0-5.08 4.84 13.81 13.81 0 0 0-1.69 4.89 78 78 0 0 0-.48 10.7ZM2889.6 1368l10.89-5.92a11.24 11.24 0 0 0 4.47 6.52 14.49 14.49 0 0 0 8.4 2.24 10.72 10.72 0 0 0 6.92-2 6.75 6.75 0 0 0 2.51-5.54q0-4.65-8.95-8c-2-.73-3.56-1.33-4.65-1.82q-9.2-3.81-12.85-7.74a13.52 13.52 0 0 1-3.65-9.55 15.16 15.16 0 0 1 6-12.45q6-4.77 15.93-4.77a24.59 24.59 0 0 1 11.39 2.44 15.09 15.09 0 0 1 6.93 7l-9.31 6.4a8.62 8.62 0 0 0-3.6-4.32 11 11 0 0 0-5.95-1.6 9.46 9.46 0 0 0-6 1.78 5.74 5.74 0 0 0-2.27 4.75q0 4.47 10.16 8.16c2.14.76 3.79 1.39 5 1.87q7.92 3.15 11.33 7.11a14.56 14.56 0 0 1 3.42 9.88q0 8.58-6.23 13.45t-17.17 4.86q-8.4 0-14-3.14a21.37 21.37 0 0 1-8.72-9.61Z" class="colorffffff svgShape"/></g></svg>